{"asset":{"version":"2.0","generator":"babylon.js glTF exporter for 3dsmax 2 v20211112.3"},"scene":0,"scenes":[{"nodes":[0,1,2,3,4,5,6,7,8,9,10,11,12,13,14,15,16,17,18,19,20,21,22,23,24,25,26,27,28]}],"nodes":[{"mesh":0,"translation":[0.0294030756,0.0,0.0843127444],"scale":[30.48,30.48,30.48],"name":" Extrusion [1914]"},{"mesh":1,"translation":[0.0294030756,0.0,0.0843127444],"scale":[30.48,30.48,30.48],"name":" Extrusion [2017]"},{"mesh":2,"translation":[0.0294030756,0.0,0.0843127444],"scale":[30.48,30.48,30.48],"name":" Extrusion [2118]"},{"mesh":3,"translation":[0.0294030756,0.0,0.0843127444],"scale":[30.48,30.48,30.48],"name":" Extrusion [2152]"},{"mesh":4,"translation":[0.0294030756,0.0,0.0843127444],"scale":[30.48,30.48,30.48],"name":" Extrusion [2221]"},{"mesh":5,"translation":[0.0294030756,0.0,0.0843127444],"scale":[30.48,30.48,30.48],"name":" Extrusion [2225]"},{"mesh":6,"translation":[0.0294030756,0.0,0.0843127444],"scale":[30.48,30.48,30.48],"name":" Extrusion [2241]"},{"mesh":7,"translation":[0.0294030756,0.0,0.0843127444],"scale":[30.48,30.48,30.48],"name":" Extrusion [2245]"},{"mesh":8,"translation":[0.0294030756,0.0,0.0843127444],"scale":[30.48,30.48,30.48],"name":" Extrusion [2249]"},{"mesh":9,"translation":[0.0294030756,0.0,0.0843127444],"scale":[30.48,30.48,30.48],"name":" Extrusion [2253]"},{"mesh":10,"translation":[0.0294030756,0.0,0.0843127444],"scale":[30.48,30.48,30.48],"name":" Extrusion [2257]"},{"mesh":11,"translation":[0.0294030756,0.0,0.0843127444],"scale":[30.48,30.48,30.48],"name":" Extrusion [2314]"},{"mesh":12,"translation":[0.0294030756,0.0,0.0843127444],"scale":[30.48,30.48,30.48],"name":" Extrusion [2350]"},{"mesh":13,"translation":[0.0294030756,0.0,0.0843127444],"scale":[30.48,30.48,30.48],"name":" Extrusion [2485]"},{"mesh":14,"translation":[0.0294030756,0.0,0.0843127444],"scale":[30.48,30.48,30.48],"name":" Extrusion [2508]"},{"mesh":15,"translation":[0.0294030756,0.0,0.0843127444],"scale":[30.48,30.48,30.48],"name":" Extrusion [2526]"},{"mesh":16,"translation":[0.0294030756,0.0,0.0843127444],"scale":[30.48,30.48,30.48],"name":" Extrusion [2539]"},{"mesh":17,"translation":[0.0294030756,0.0,0.0843127444],"scale":[30.48,30.48,30.48],"name":" Extrusion [2543]"},{"mesh":18,"translation":[0.0294030756,0.0,0.0843127444],"scale":[30.48,30.48,30.48],"name":" Extrusion [2589]"},{"mesh":19,"translation":[0.0294030756,0.0,0.0843127444],"scale":[30.48,30.48,30.48],"name":" Extrusion [3348]"},{"mesh":20,"translation":[0.0294030756,0.0,0.0843127444],"scale":[30.48,30.48,30.48],"name":" Extrusion [3384]"},{"mesh":21,"translation":[0.0294030756,0.0,0.0843127444],"scale":[30.48,30.48,30.48],"name":" Extrusion [3768]"},{"mesh":22,"translation":[0.0294030756,0.0,0.0843127444],"scale":[30.48,30.48,30.48],"name":" Extrusion [3792]"},{"mesh":23,"translation":[0.0294030756,0.0,0.0843127444],"scale":[30.48,30.48,30.48],"name":" Extrusion [3849]"},{"mesh":24,"translation":[0.0294030756,0.0,0.0843127444],"scale":[30.48,30.48,30.48],"name":" Revolve [4284]"},{"mesh":25,"translation":[0.0294030756,0.0,0.0843127444],"scale":[30.48,30.48,30.48],"name":" Revolve [4298]"},{"mesh":26,"translation":[0.0294030756,0.0,0.0843127444],"scale":[30.48,30.48,30.48],"name":" Revolve [4310]"},{"mesh":27,"translation":[1.03940308,0.7698888,0.394312739],"scale":[30.48,30.48,30.48],"name":"Ping Pong Racket Ping Pong Racket [5828]"},{"mesh":28,"translation":[-0.96679455,0.7698888,-0.186323851],"rotation":[0.0,-0.513602436,0.0,0.858028352],"scale":[30.48,30.48,30.48],"name":"Ping Pong Racket Ping Pong Racket [5828]001"}],"meshes":[{"primitives":[{"attributes":{"POSITION":1,"NORMAL":2,"TEXCOORD_0":3},"indices":0,"material":0}],"name":" Extrusion [1914]"},{"primitives":[{"attributes":{"POSITION":5,"NORMAL":6,"TEXCOORD_0":7},"indices":4,"material":0}],"name":" Extrusion [2017]"},{"primitives":[{"attributes":{"POSITION":9,"NORMAL":10,"TEXCOORD_0":11},"indices":8,"material":1}],"name":" Extrusion [2118]"},{"primitives":[{"attributes":{"POSITION":13,"NORMAL":14,"TEXCOORD_0":15},"indices":12,"material":2}],"name":" Extrusion [2152]"},{"primitives":[{"attributes":{"POSITION":17,"NORMAL":18,"TEXCOORD_0":19},"indices":16,"material":1}],"name":" Extrusion [2221]"},{"primitives":[{"attributes":{"POSITION":21,"NORMAL":22,"TEXCOORD_0":23},"indices":20,"material":2}],"name":" Extrusion [2225]"},{"primitives":[{"attributes":{"POSITION":25,"NORMAL":26,"TEXCOORD_0":27},"indices":24,"material":1}],"name":" Extrusion [2241]"},{"primitives":[{"attributes":{"POSITION":29,"NORMAL":30,"TEXCOORD_0":31},"indices":28,"material":2}],"name":" Extrusion [2245]"},{"primitives":[{"attributes":{"POSITION":33,"NORMAL":34,"TEXCOORD_0":35},"indices":32,"material":1}],"name":" Extrusion [2249]"},{"primitives":[{"attributes":{"POSITION":37,"NORMAL":38,"TEXCOORD_0":39},"indices":36,"material":2}],"name":" Extrusion [2253]"},{"primitives":[{"attributes":{"POSITION":41,"NORMAL":42,"TEXCOORD_0":43},"indices":40,"material":1}],"name":" Extrusion [2257]"},{"primitives":[{"attributes":{"POSITION":45,"NORMAL":46,"TEXCOORD_0":47},"indices":44,"material":1}],"name":" Extrusion [2314]"},{"primitives":[{"attributes":{"POSITION":49,"NORMAL":50,"TEXCOORD_0":51},"indices":48,"material":1}],"name":" Extrusion [2350]"},{"primitives":[{"attributes":{"POSITION":53,"NORMAL":54,"TEXCOORD_0":55},"indices":52,"material":1}],"name":" Extrusion [2485]"},{"primitives":[{"attributes":{"POSITION":57,"NORMAL":58,"TEXCOORD_0":59},"indices":56,"material":1}],"name":" Extrusion [2508]"},{"primitives":[{"attributes":{"POSITION":61,"NORMAL":62,"TEXCOORD_0":63},"indices":60,"material":1}],"name":" Extrusion [2526]"},{"primitives":[{"attributes":{"POSITION":65,"NORMAL":66,"TEXCOORD_0":67},"indices":64,"material":1}],"name":" Extrusion [2539]"},{"primitives":[{"attributes":{"POSITION":69,"NORMAL":70,"TEXCOORD_0":71},"indices":68,"material":1}],"name":" Extrusion [2543]"},{"primitives":[{"attributes":{"POSITION":73,"NORMAL":74,"TEXCOORD_0":75},"indices":72,"material":3}],"name":" Extrusion [2589]"},{"primitives":[{"attributes":{"POSITION":77,"NORMAL":78,"TEXCOORD_0":79},"indices":76,"material":3}],"name":" Extrusion [3348]"},{"primitives":[{"attributes":{"POSITION":81,"NORMAL":82,"TEXCOORD_0":83},"indices":80,"material":1}],"name":" Extrusion [3384]"},{"primitives":[{"attributes":{"POSITION":85,"NORMAL":86,"TEXCOORD_0":87},"indices":84,"material":1}],"name":" Extrusion [3768]"},{"primitives":[{"attributes":{"POSITION":89,"NORMAL":90,"TEXCOORD_0":91},"indices":88,"material":1}],"name":" Extrusion [3792]"},{"primitives":[{"attributes":{"POSITION":93,"NORMAL":94,"TEXCOORD_0":95},"indices":92,"material":4}],"name":" Extrusion [3849]"},{"primitives":[{"attributes":{"POSITION":97,"NORMAL":98,"TEXCOORD_0":99},"indices":96,"material":5}],"name":" Revolve [4284]"},{"primitives":[{"attributes":{"POSITION":101,"NORMAL":102,"TEXCOORD_0":103},"indices":100,"material":5}],"name":" Revolve [4298]"},{"primitives":[{"attributes":{"POSITION":105,"NORMAL":106,"TEXCOORD_0":107},"indices":104,"material":5}],"name":" Revolve [4310]"},{"primitives":[{"attributes":{"POSITION":109,"NORMAL":110,"TEXCOORD_0":111},"indices":108}],"name":"Ping Pong Racket Ping Pong Racket [5828]"},{"primitives":[{"attributes":{"POSITION":113,"NORMAL":114,"TEXCOORD_0":115},"indices":112}],"name":"Ping Pong Racket Ping Pong Racket [5828]001"}],"accessors":[{"bufferView":0,"componentType":5123,"count":72,"type":"SCALAR","name":"accessorIndices"},{"bufferView":1,"componentType":5126,"count":48,"max":[0.044947505,0.0249343812,0.0249343812],"min":[-0.044947505,0.0242782161,-0.0249343812],"type":"VEC3","name":"accessorPositions"},{"bufferView":1,"byteOffset":576,"componentType":5126,"count":48,"type":"VEC3","name":"accessorNormals"},{"bufferView":2,"componentType":5126,"count":48,"type":"VEC2","name":"accessorUVs"},{"bufferView":0,"byteOffset":144,"componentType":5123,"count":192,"type":"SCALAR","name":"accessorIndices"},{"bufferView":1,"byteOffset":1152,"componentType":5126,"count":96,"max":[0.044947505,0.0242782161,0.0249343812],"min":[-0.044947505,0.0209973752,-0.0249343812],"type":"VEC3","name":"accessorPositions"},{"bufferView":1,"byteOffset":2304,"componentType":5126,"count":96,"type":"VEC3","name":"accessorNormals"},{"bufferView":2,"byteOffset":384,"componentType":5126,"count":96,"type":"VEC2","name":"accessorUVs"},{"bufferView":0,"byteOffset":528,"componentType":5123,"count":1014,"type":"SCALAR","name":"accessorIndices"},{"bufferView":1,"byteOffset":3456,"componentType":5126,"count":228,"max":[-0.0426418521,0.0242782161,-0.0226220787],"min":[-0.0442822725,0.001312336,-0.0242624991],"type":"VEC3","name":"accessorPositions"},{"bufferView":1,"byteOffset":6192,"componentType":5126,"count":228,"type":"VEC3","name":"accessorNormals"},{"bufferView":2,"byteOffset":1152,"componentType":5126,"count":228,"type":"VEC2","name":"accessorUVs"},{"bufferView":0,"byteOffset":2556,"componentType":5123,"count":276,"type":"SCALAR","name":"accessorIndices"},{"bufferView":1,"byteOffset":8928,"componentType":5126,"count":98,"max":[-0.04239497,0.001312336,-0.0223751944],"min":[-0.04452916,0.0,-0.0245093834],"type":"VEC3","name":"accessorPositions"},{"bufferView":1,"byteOffset":10104,"componentType":5126,"count":98,"type":"VEC3","name":"accessorNormals"},{"bufferView":2,"byteOffset":2976,"componentType":5126,"count":98,"type":"VEC2","name":"accessorUVs"},{"bufferView":0,"byteOffset":3108,"componentType":5123,"count":1014,"type":"SCALAR","name":"accessorIndices"},{"bufferView":1,"byteOffset":11280,"componentType":5126,"count":228,"max":[0.0442656428,0.0242782161,-0.0226295982],"min":[0.0426252224,0.001312336,-0.0242700186],"type":"VEC3","name":"accessorPositions"},{"bufferView":1,"byteOffset":14016,"componentType":5126,"count":228,"type":"VEC3","name":"accessorNormals"},{"bufferView":2,"byteOffset":3760,"componentType":5126,"count":228,"type":"VEC2","name":"accessorUVs"},{"bufferView":0,"byteOffset":5136,"componentType":5123,"count":276,"type":"SCALAR","name":"accessorIndices"},{"bufferView":1,"byteOffset":16752,"componentType":5126,"count":98,"max":[0.04451253,0.001312336,-0.0223827139],"min":[0.04237834,0.0,-0.0245169047],"type":"VEC3","name":"accessorPositions"},{"bufferView":1,"byteOffset":17928,"componentType":5126,"count":98,"type":"VEC3","name":"accessorNormals"},{"bufferView":2,"byteOffset":5584,"componentType":5126,"count":98,"type":"VEC2","name":"accessorUVs"},{"bufferView":0,"byteOffset":5688,"componentType":5123,"count":1014,"type":"SCALAR","name":"accessorIndices"},{"bufferView":1,"byteOffset":19104,"componentType":5126,"count":228,"max":[-0.0426418521,0.0242782161,0.0242782161],"min":[-0.0442822725,0.001312336,0.0226377957],"type":"VEC3","name":"accessorPositions"},{"bufferView":1,"byteOffset":21840,"componentType":5126,"count":228,"type":"VEC3","name":"accessorNormals"},{"bufferView":2,"byteOffset":6368,"componentType":5126,"count":228,"type":"VEC2","name":"accessorUVs"},{"bufferView":0,"byteOffset":7716,"componentType":5123,"count":276,"type":"SCALAR","name":"accessorIndices"},{"bufferView":1,"byteOffset":24576,"componentType":5126,"count":98,"max":[-0.04239497,0.001312336,0.0245250985],"min":[-0.04452916,0.0,0.0223909114],"type":"VEC3","name":"accessorPositions"},{"bufferView":1,"byteOffset":25752,"componentType":5126,"count":98,"type":"VEC3","name":"accessorNormals"},{"bufferView":2,"byteOffset":8192,"componentType":5126,"count":98,"type":"VEC2","name":"accessorUVs"},{"bufferView":0,"byteOffset":8268,"componentType":5123,"count":1014,"type":"SCALAR","name":"accessorIndices"},{"bufferView":1,"byteOffset":26928,"componentType":5126,"count":228,"max":[0.0442656428,0.0242782161,0.0242706928],"min":[0.0426252224,0.001312336,0.0226302743],"type":"VEC3","name":"accessorPositions"},{"bufferView":1,"byteOffset":29664,"componentType":5126,"count":228,"type":"VEC3","name":"accessorNormals"},{"bufferView":2,"byteOffset":8976,"componentType":5126,"count":228,"type":"VEC2","name":"accessorUVs"},{"bufferView":0,"byteOffset":10296,"componentType":5123,"count":276,"type":"SCALAR","name":"accessorIndices"},{"bufferView":1,"byteOffset":32400,"componentType":5126,"count":98,"max":[0.04451253,0.001312336,0.024517579],"min":[0.04237834,0.0,0.0223833881],"type":"VEC3","name":"accessorPositions"},{"bufferView":1,"byteOffset":33576,"componentType":5126,"count":98,"type":"VEC3","name":"accessorNormals"},{"bufferView":2,"byteOffset":10800,"componentType":5126,"count":98,"type":"VEC2","name":"accessorUVs"},{"bufferView":0,"byteOffset":10848,"componentType":5123,"count":900,"type":"SCALAR","name":"accessorIndices"},{"bufferView":1,"byteOffset":34752,"componentType":5126,"count":228,"max":[-0.0432009548,0.0224408451,0.0236863829],"min":[-0.04385712,0.00196289248,-0.0233900882],"type":"VEC3","name":"accessorPositions"},{"bufferView":1,"byteOffset":37488,"componentType":5126,"count":228,"type":"VEC3","name":"accessorNormals"},{"bufferView":2,"byteOffset":11584,"componentType":5126,"count":228,"type":"VEC2","name":"accessorUVs"},{"bufferView":0,"byteOffset":12648,"componentType":5123,"count":828,"type":"SCALAR","name":"accessorIndices"},{"bufferView":1,"byteOffset":40224,"componentType":5126,"count":217,"max":[-0.002488075,0.02427916,0.0238905661],"min":[-0.04358881,0.002009944,0.0232343972],"type":"VEC3","name":"accessorPositions"},{"bufferView":1,"byteOffset":42828,"componentType":5126,"count":217,"type":"VEC3","name":"accessorNormals"},{"bufferView":2,"byteOffset":13408,"componentType":5126,"count":217,"type":"VEC2","name":"accessorUVs"},{"bufferView":0,"byteOffset":14304,"componentType":5123,"count":900,"type":"SCALAR","name":"accessorIndices"},{"bufferView":1,"byteOffset":45432,"componentType":5126,"count":228,"max":[-0.0432009548,0.0224408451,0.0233900882],"min":[-0.04385712,0.00196289248,-0.0236863829],"type":"VEC3","name":"accessorPositions"},{"bufferView":1,"byteOffset":48168,"componentType":5126,"count":228,"type":"VEC3","name":"accessorNormals"},{"bufferView":2,"byteOffset":15144,"componentType":5126,"count":228,"type":"VEC2","name":"accessorUVs"},{"bufferView":0,"byteOffset":16104,"componentType":5123,"count":828,"type":"SCALAR","name":"accessorIndices"},{"bufferView":1,"byteOffset":50904,"componentType":5126,"count":217,"max":[0.04358881,0.02427916,0.0238905661],"min":[0.002488075,0.002009944,0.0232343972],"type":"VEC3","name":"accessorPositions"},{"bufferView":1,"byteOffset":53508,"componentType":5126,"count":217,"type":"VEC3","name":"accessorNormals"},{"bufferView":2,"byteOffset":16968,"componentType":5126,"count":217,"type":"VEC2","name":"accessorUVs"},{"bufferView":0,"byteOffset":17760,"componentType":5123,"count":828,"type":"SCALAR","name":"accessorIndices"},{"bufferView":1,"byteOffset":56112,"componentType":5126,"count":217,"max":[0.04358881,0.02427916,-0.0230778381],"min":[0.002488075,0.002009944,-0.023734007],"type":"VEC3","name":"accessorPositions"},{"bufferView":1,"byteOffset":58716,"componentType":5126,"count":217,"type":"VEC3","name":"accessorNormals"},{"bufferView":2,"byteOffset":18704,"componentType":5126,"count":217,"type":"VEC2","name":"accessorUVs"},{"bufferView":0,"byteOffset":19416,"componentType":5123,"count":828,"type":"SCALAR","name":"accessorIndices"},{"bufferView":1,"byteOffset":61320,"componentType":5126,"count":217,"max":[-0.002488075,0.02427916,-0.0231007859],"min":[-0.04358881,0.002009944,-0.0237569511],"type":"VEC3","name":"accessorPositions"},{"bufferView":1,"byteOffset":63924,"componentType":5126,"count":217,"type":"VEC3","name":"accessorNormals"},{"bufferView":2,"byteOffset":20440,"componentType":5126,"count":217,"type":"VEC2","name":"accessorUVs"},{"bufferView":0,"byteOffset":21072,"componentType":5123,"count":900,"type":"SCALAR","name":"accessorIndices"},{"bufferView":1,"byteOffset":66528,"componentType":5126,"count":228,"max":[0.0438085124,0.0224408451,0.0236863829],"min":[0.0431523472,0.00196289248,-0.0233900882],"type":"VEC3","name":"accessorPositions"},{"bufferView":1,"byteOffset":69264,"componentType":5126,"count":228,"type":"VEC3","name":"accessorNormals"},{"bufferView":2,"byteOffset":22176,"componentType":5126,"count":228,"type":"VEC2","name":"accessorUVs"},{"bufferView":0,"byteOffset":22872,"componentType":5123,"count":900,"type":"SCALAR","name":"accessorIndices"},{"bufferView":1,"byteOffset":72000,"componentType":5126,"count":228,"max":[0.0438085124,0.0224408451,0.0233900882],"min":[0.0431523472,0.00196289248,-0.0236863829],"type":"VEC3","name":"accessorPositions"},{"bufferView":1,"byteOffset":74736,"componentType":5126,"count":228,"type":"VEC3","name":"accessorNormals"},{"bufferView":2,"byteOffset":24000,"componentType":5126,"count":228,"type":"VEC2","name":"accessorUVs"},{"bufferView":0,"byteOffset":24672,"componentType":5123,"count":156,"type":"SCALAR","name":"accessorIndices"},{"bufferView":1,"byteOffset":77472,"componentType":5126,"count":72,"max":[-0.000328084,0.0250984263,0.0246062987],"min":[-0.0446194224,0.0249343812,-0.0246062987],"type":"VEC3","name":"accessorPositions"},{"bufferView":1,"byteOffset":78336,"componentType":5126,"count":72,"type":"VEC3","name":"accessorNormals"},{"bufferView":2,"byteOffset":25824,"componentType":5126,"count":72,"type":"VEC2","name":"accessorUVs"},{"bufferView":0,"byteOffset":24984,"componentType":5123,"count":156,"type":"SCALAR","name":"accessorIndices"},{"bufferView":1,"byteOffset":79200,"componentType":5126,"count":72,"max":[0.0446194224,0.0250984263,0.0246062987],"min":[0.000328084,0.0249343812,-0.0246062987],"type":"VEC3","name":"accessorPositions"},{"bufferView":1,"byteOffset":80064,"componentType":5126,"count":72,"type":"VEC3","name":"accessorNormals"},{"bufferView":2,"byteOffset":26400,"componentType":5126,"count":72,"type":"VEC2","name":"accessorUVs"},{"bufferView":0,"byteOffset":25296,"componentType":5123,"count":84,"type":"SCALAR","name":"accessorIndices"},{"bufferView":1,"byteOffset":80928,"componentType":5126,"count":48,"max":[0.000328084,0.0298755448,0.02561045],"min":[-0.000328084,0.02324335,0.0249343812],"type":"VEC3","name":"accessorPositions"},{"bufferView":1,"byteOffset":81504,"componentType":5126,"count":48,"type":"VEC3","name":"accessorNormals"},{"bufferView":2,"byteOffset":26976,"componentType":5126,"count":48,"type":"VEC2","name":"accessorUVs"},{"bufferView":0,"byteOffset":25464,"componentType":5123,"count":84,"type":"SCALAR","name":"accessorIndices"},{"bufferView":1,"byteOffset":82080,"componentType":5126,"count":48,"max":[0.000328084,0.0298755448,-0.0249343812],"min":[-0.000328084,0.02324335,-0.02561045],"type":"VEC3","name":"accessorPositions"},{"bufferView":1,"byteOffset":82656,"componentType":5126,"count":48,"type":"VEC3","name":"accessorNormals"},{"bufferView":2,"byteOffset":27360,"componentType":5126,"count":48,"type":"VEC2","name":"accessorUVs"},{"bufferView":0,"byteOffset":25632,"componentType":5123,"count":96,"type":"SCALAR","name":"accessorIndices"},{"bufferView":1,"byteOffset":83232,"componentType":5126,"count":48,"max":[8.547552E-05,0.0298298765,0.0246062987],"min":[-8.547552E-05,0.0257023666,-0.0246062987],"type":"VEC3","name":"accessorPositions"},{"bufferView":1,"byteOffset":83808,"componentType":5126,"count":48,"type":"VEC3","name":"accessorNormals"},{"bufferView":2,"byteOffset":27744,"componentType":5126,"count":48,"type":"VEC2","name":"accessorUVs"},{"bufferView":0,"byteOffset":25824,"componentType":5123,"count":36,"type":"SCALAR","name":"accessorIndices"},{"bufferView":1,"byteOffset":84384,"componentType":5126,"count":24,"max":[8.547552E-05,0.0295333434,0.02395013],"min":[-8.547552E-05,0.0260011647,-0.02395013],"type":"VEC3","name":"accessorPositions"},{"bufferView":1,"byteOffset":84672,"componentType":5126,"count":24,"type":"VEC3","name":"accessorNormals"},{"bufferView":2,"byteOffset":28128,"componentType":5126,"count":24,"type":"VEC2","name":"accessorUVs"},{"bufferView":0,"byteOffset":25896,"componentType":5123,"count":3876,"type":"SCALAR","name":"accessorIndices"},{"bufferView":1,"byteOffset":84960,"componentType":5126,"count":762,"max":[0.0270619951,0.02670039,0.015563054],"min":[0.02551683,0.0250984263,0.013961086],"type":"VEC3","name":"accessorPositions"},{"bufferView":1,"byteOffset":94104,"componentType":5126,"count":762,"type":"VEC3","name":"accessorNormals"},{"bufferView":2,"byteOffset":28320,"componentType":5126,"count":762,"type":"VEC2","name":"accessorUVs"},{"bufferView":0,"byteOffset":33648,"componentType":5123,"count":3876,"type":"SCALAR","name":"accessorIndices"},{"bufferView":1,"byteOffset":103248,"componentType":5126,"count":762,"max":[0.028569933,0.02670039,0.0140551161],"min":[0.0270247664,0.0250984263,0.0124531481],"type":"VEC3","name":"accessorPositions"},{"bufferView":1,"byteOffset":112392,"componentType":5126,"count":762,"type":"VEC3","name":"accessorNormals"},{"bufferView":2,"byteOffset":34416,"componentType":5126,"count":762,"type":"VEC2","name":"accessorUVs"},{"bufferView":0,"byteOffset":41400,"componentType":5123,"count":3876,"type":"SCALAR","name":"accessorIndices"},{"bufferView":1,"byteOffset":121536,"componentType":5126,"count":762,"max":[0.0301644579,0.02670039,0.0174745843],"min":[0.0286192913,0.0250984263,0.0158726163],"type":"VEC3","name":"accessorPositions"},{"bufferView":1,"byteOffset":130680,"componentType":5126,"count":762,"type":"VEC3","name":"accessorNormals"},{"bufferView":2,"byteOffset":40512,"componentType":5126,"count":762,"type":"VEC2","name":"accessorUVs"},{"bufferView":0,"byteOffset":49152,"componentType":5123,"count":1500,"type":"SCALAR","name":"accessorIndices"},{"bufferView":1,"byteOffset":139824,"componentType":5126,"count":564,"max":[0.002618115,0.000686709071,0.006316578],"min":[-0.002618115,0.000113512739,-0.00352438656],"type":"VEC3","name":"accessorPositions"},{"bufferView":1,"byteOffset":146592,"componentType":5126,"count":564,"type":"VEC3","name":"accessorNormals"},{"bufferView":2,"byteOffset":46608,"componentType":5126,"count":564,"type":"VEC2","name":"accessorUVs"},{"bufferView":0,"byteOffset":52152,"componentType":5123,"count":1500,"type":"SCALAR","name":"accessorIndices"},{"bufferView":1,"byteOffset":153360,"componentType":5126,"count":564,"max":[0.002618115,0.000686709071,0.006316578],"min":[-0.002618115,0.000113512739,-0.00352438656],"type":"VEC3","name":"accessorPositions"},{"bufferView":1,"byteOffset":160128,"componentType":5126,"count":564,"type":"VEC3","name":"accessorNormals"},{"bufferView":2,"byteOffset":51120,"componentType":5126,"count":564,"type":"VEC2","name":"accessorUVs"}],"bufferViews":[{"buffer":0,"byteLength":55152,"name":"bufferViewScalar"},{"buffer":0,"byteOffset":55152,"byteLength":166896,"byteStride":12,"name":"bufferViewFloatVec3"},{"buffer":0,"byteOffset":222048,"byteLength":55632,"byteStride":8,"name":"bufferViewFloatVec2"}],"buffers":[{"uri":"ping pong gltf.bin","byteLength":277680}],"materials":[{"pbrMetallicRoughness":{"baseColorTexture":{"index":0},"metallicFactor":0.0,"roughnessFactor":0.450053632},"name":"green"},{"pbrMetallicRoughness":{"baseColorTexture":{"index":1},"metallicFactor":0.0,"roughnessFactor":0.450053632},"name":"aluminum"},{"pbrMetallicRoughness":{"baseColorTexture":{"index":2},"metallicFactor":0.0,"roughnessFactor":0.450053632},"name":"plastic"},{"pbrMetallicRoughness":{"baseColorTexture":{"index":3},"metallicFactor":0.0,"roughnessFactor":0.450053632},"name":"grey"},{"pbrMetallicRoughness":{"baseColorTexture":{"index":4},"metallicFactor":0.0,"roughnessFactor":0.450053632},"name":"fabric"},{"pbrMetallicRoughness":{"baseColorTexture":{"index":5},"metallicFactor":0.0,"roughnessFactor":0.450053632},"name":"yellow"}],"textures":[{"sampler":0,"source":0,"name":"green.png"},{"sampler":0,"source":1,"name":"aluminum.jpg"},{"sampler":0,"source":2,"name":"plastic.jpg"},{"sampler":0,"source":3,"name":"grey.png"},{"sampler":0,"source":4,"name":"fabric 1.jpg"},{"sampler":0,"source":5,"name":"yellow.jpg"}],"images":[{"uri":"green.png"},{"uri":"aluminum.jpg"},{"uri":"plastic.jpg"},{"uri":"grey.png"},{"uri":"fabric 1.jpg"},{"uri":"yellow.jpg"}],"samplers":[{"magFilter":9729,"minFilter":9987}]}